<svg xmlns="http://www.w3.org/2000/svg" width="196" height="65" viewBox="0 0 196 65">
    <g fill="none" fill-rule="evenodd">
        <g fill-rule="nonzero">
            <g>
                <path fill="#005857" d="M124.518 62.533c-1.812 0-3.624-.713-4.996-2.086L91.027 31.294l28.495-29.153c1.372-1.427 3.184-2.086 5.05-2.086 4.008 0 6.973 3.24 6.973 6.972 0 1.757-.659 3.57-1.976 4.942l-18.942 19.325L129.57 50.62c1.317 1.372 1.976 3.184 1.976 4.94-.055 3.734-3.02 6.973-7.027 6.973M83.012 62.533c-3.843 0-6.973-3.13-6.973-6.972V7.082C76.04 3.24 79.17.11 83.012.11s6.972 3.13 6.972 6.972v48.479c.055 3.843-3.074 6.972-6.972 6.972M170.69 62.478c-18.063 0-31.953-12.188-31.953-31.184 0-17.074 11.914-31.24 31.953-31.24 5.71 0 11.804 1.483 16.69 4.393 2.196 1.318 3.404 3.624 3.404 6.04 0 3.623-2.91 6.972-6.972 6.972-1.263 0-2.47-.33-3.624-.988-2.635-1.483-5.874-2.636-9.388-2.636-10.98 0-17.788 7.522-17.788 17.46 0 10.595 7.466 17.403 17.788 17.403 3.678 0 8.125-1.373 10.925-3.294v-6.369h-4.666c-3.843 0-6.973-3.13-6.973-6.972 0-3.843 3.13-6.973 6.973-6.973h11.639c3.843 0 6.973 3.13 6.973 6.973v16.086c0 2.086-.879 4.118-2.361 5.545-5.765 5.655-13.89 8.784-22.62 8.784" transform="translate(-120 -47) translate(120 47)"/>
                <path fill="#2CD5C4" d="M15.098 7.467c0 4.062-3.294 7.411-7.412 7.411-4.062 0-7.411-3.294-7.411-7.411C.275 3.404 3.569.055 7.686.055c4.063 0 7.412 3.349 7.412 7.412M60.337 7.467c0 4.062-3.294 7.411-7.412 7.411-4.062 0-7.356-3.349-7.356-7.411 0-4.063 3.294-7.412 7.411-7.412 4.063 0 7.357 3.349 7.357 7.412" transform="translate(-120 -47) translate(120 47)"/>
                <path fill="#005857" d="M30.306 62.533C13.946 62.533.659 49.247.659 32.886v-4.721c0-3.843 3.13-6.973 6.972-6.973 3.844 0 6.973 3.13 6.973 6.973v4.886c0 8.62 5.106 15.647 15.647 15.647 9.827 0 15.647-7.027 15.647-15.647v-4.886c0-3.843 3.13-6.973 6.973-6.973s6.972 3.13 6.972 6.973v4.721c.11 16.361-13.176 29.647-29.537 29.647" transform="translate(-120 -47) translate(120 47)"/>
            </g>
        </g>
    </g>
</svg>
